<svg width="455" height="803" viewBox="0 0 455 803" fill="none" xmlns="http://www.w3.org/2000/svg">
<path d="M141.176 752.294L0 667.941L140.471 598.765L282 667.941L141.176 752.294Z" fill="url(#paint0_radial_29_684)"/>
<path d="M141.176 752.294L0 667.941L140.471 598.765L282 667.941L141.176 752.294Z" fill="url(#paint1_radial_29_684)"/>
<path d="M0 716.647V667.941L140.824 752.294V802.059L0 716.647Z" fill="url(#paint2_radial_29_684)"/>
<ellipse cx="69.3848" cy="734.467" rx="9.00599" ry="10.1317" transform="rotate(-2.17968 69.3848 734.467)" fill="url(#paint3_radial_29_684)"/>
<ellipse cx="68.8223" cy="734.488" rx="5.06587" ry="5.62874" transform="rotate(-2.17968 68.8223 734.488)" fill="#90D701"/>
<path d="M282 716.647V667.941L141.176 752.294V802.059L282 716.647Z" fill="url(#paint4_radial_29_684)"/>
<path d="M141.176 675.353L0 591L140.471 521.823L282 591L141.176 675.353Z" fill="url(#paint5_radial_29_684)"/>
<path d="M141.176 675.353L0 591L140.471 521.823L282 591L141.176 675.353Z" fill="url(#paint6_radial_29_684)"/>
<path d="M0 639.706V591L140.824 675.353V725.118L0 639.706Z" fill="url(#paint7_radial_29_684)"/>
<path d="M282 639.706V591L141.176 675.353V725.118L282 639.706Z" fill="url(#paint8_radial_29_684)"/>
<path d="M141.176 598.412L0 514.059L140.471 444.882L282 514.059L141.176 598.412Z" fill="url(#paint9_radial_29_684)"/>
<path d="M141.176 598.412L0 514.059L140.471 444.882L282 514.059L141.176 598.412Z" fill="url(#paint10_radial_29_684)"/>
<path d="M0 562.765V514.059L140.824 598.412V648.176L0 562.765Z" fill="url(#paint11_radial_29_684)"/>
<path d="M282 562.765V514.059L141.176 598.412V648.176L282 562.765Z" fill="url(#paint12_radial_29_684)"/>
<path d="M141.176 521.471L0 437.118L140.471 367.941L282 437.118L141.176 521.471Z" fill="url(#paint13_radial_29_684)"/>
<path d="M141.176 521.471L0 437.118L140.471 367.941L282 437.118L141.176 521.471Z" fill="url(#paint14_radial_29_684)"/>
<path d="M0 485.824V437.118L140.824 521.471V571.235L0 485.824Z" fill="url(#paint15_radial_29_684)"/>
<path d="M282 485.824V437.118L141.176 521.471V571.235L282 485.824Z" fill="url(#paint16_radial_29_684)"/>
<path d="M141.176 444.529L0 360.176L140.471 291L282 360.176L141.176 444.529Z" fill="url(#paint17_radial_29_684)"/>
<path d="M141.176 444.529L0 360.176L140.471 291L282 360.176L141.176 444.529Z" fill="url(#paint18_radial_29_684)"/>
<path d="M0 408.882V360.177L140.824 444.529V494.294L0 408.882Z" fill="url(#paint19_radial_29_684)"/>
<path d="M282 408.882V360.177L141.176 444.529V494.294L282 408.882Z" fill="url(#paint20_radial_29_684)"/>
<ellipse cx="123.832" cy="460.988" rx="9.00599" ry="10.1317" fill="url(#paint21_radial_29_684)"/>
<ellipse cx="123.269" cy="460.988" rx="5.06587" ry="5.62874" fill="#F964FC"/>
<ellipse cx="122.707" cy="537.539" rx="9.00599" ry="10.1317" transform="rotate(-2.17968 122.707 537.539)" fill="url(#paint22_radial_29_684)"/>
<ellipse cx="122.144" cy="537.56" rx="5.06587" ry="5.62874" transform="rotate(-2.17968 122.144 537.56)" fill="#90D701"/>
<ellipse cx="98.3189" cy="675.215" rx="9.00599" ry="10.1317" transform="rotate(-2.17968 98.3189 675.215)" fill="url(#paint23_radial_29_684)"/>
<ellipse cx="97.7564" cy="675.237" rx="5.06587" ry="5.62874" transform="rotate(-2.17968 97.7564 675.237)" fill="#90D701"/>
<ellipse cx="107.325" cy="604.293" rx="9.00599" ry="10.1317" transform="rotate(-2.17968 107.325 604.293)" fill="url(#paint24_radial_29_684)"/>
<ellipse cx="106.762" cy="604.315" rx="5.06587" ry="5.62874" transform="rotate(-2.17968 106.762 604.315)" fill="#F964FC"/>
<ellipse cx="120.834" cy="689.85" rx="9.00599" ry="10.1317" transform="rotate(-2.17968 120.834 689.85)" fill="url(#paint25_radial_29_684)"/>
<ellipse cx="120.271" cy="689.872" rx="5.06587" ry="5.62874" transform="rotate(-2.17968 120.271 689.872)" fill="#F964FC"/>
<ellipse cx="101.696" cy="526.617" rx="9.00599" ry="10.1317" transform="rotate(-2.17968 101.696 526.617)" fill="url(#paint26_radial_29_684)"/>
<ellipse cx="101.134" cy="526.638" rx="5.06587" ry="5.62874" transform="rotate(-2.17968 101.134 526.638)" fill="#90D701"/>
<ellipse cx="74.6783" cy="661.706" rx="9.00599" ry="10.1317" transform="rotate(-2.17968 74.6783 661.706)" fill="url(#paint27_radial_29_684)"/>
<ellipse cx="74.1159" cy="661.728" rx="5.06587" ry="5.62874" transform="rotate(-2.17968 74.1159 661.728)" fill="#90D701"/>
<ellipse cx="52.1633" cy="648.197" rx="9.00599" ry="10.1317" transform="rotate(-2.17968 52.1633 648.197)" fill="url(#paint28_radial_29_684)"/>
<ellipse cx="51.6007" cy="648.219" rx="5.06587" ry="5.62874" transform="rotate(-2.17968 51.6007 648.219)" fill="#90D701"/>
<ellipse cx="27.3968" cy="633.563" rx="9.00599" ry="10.1317" transform="rotate(-2.17968 27.3968 633.563)" fill="url(#paint29_radial_29_684)"/>
<ellipse cx="26.8343" cy="633.584" rx="5.06587" ry="5.62874" transform="rotate(-2.17968 26.8343 633.584)" fill="#90D701"/>
<path d="M99.411 454.457L64.3738 433.206C62.1491 431.857 60.7904 429.444 60.7904 426.842C60.7904 421.059 67.0975 417.484 72.0589 420.456L107.213 441.513C109.491 442.878 110.886 445.34 110.886 447.996C110.886 453.886 104.447 457.511 99.411 454.457Z" fill="url(#paint30_radial_29_684)"/>
<path d="M79.2376 516.288L17.97 479.428C16.9262 478.8 16.2137 477.742 16.0237 476.539C15.4759 473.07 19.2404 470.549 22.2395 472.377L50.6587 489.695L83.51 509.126C84.7787 509.876 85.5569 511.241 85.5569 512.715C85.5569 515.958 82.0167 517.96 79.2376 516.288Z" fill="url(#paint31_linear_29_684)"/>
<path d="M50.6587 565.12L83.51 584.551C84.7787 585.302 85.5569 586.666 85.5569 588.14C85.5569 591.384 82.0167 593.385 79.2376 591.713L50.9402 574.689L17.97 554.853C16.9262 554.225 16.2137 553.167 16.0237 551.964C15.4759 548.495 19.2404 545.974 22.2395 547.802L50.6587 565.12Z" fill="url(#paint32_linear_29_684)"/>
<path d="M414.169 366.103L252.169 296.816C242.968 292.881 237 283.837 237 273.83V33.4821C237 16.7709 253.08 4.76461 269.102 9.51224L431.102 57.5142C441.718 60.6597 449 70.4125 449 81.4841V343.117C449 361.057 430.664 373.158 414.169 366.103Z" fill="url(#paint33_diamond_29_684)" fill-opacity="0.41" stroke="#F964FC" stroke-width="12"/>
<rect width="101.013" height="105" rx="50.5063" transform="matrix(-0.866025 0.5 0.5 0.866025 345.798 133)" fill="#FFEBF5"/>
<rect width="101.013" height="105" rx="50.5063" transform="matrix(-0.866025 0.5 0.5 0.866025 299.756 159.582)" fill="#E3E6B8"/>
<rect width="101.013" height="105" rx="50.5063" transform="matrix(-0.866025 0.5 0.5 0.866025 252.563 186.829)" fill="#C8E17B"/>
<rect width="101.013" height="105" rx="50.5063" transform="matrix(-0.866025 0.5 0.5 0.866025 207.672 212.747)" fill="#ACDC3E"/>
<rect width="101.013" height="105" rx="50.5063" transform="matrix(-0.866025 0.5 0.5 0.866025 160.479 239.994)" fill="#90D701"/>
<path d="M116.307 772.198L85.1831 753.322C83.2069 752.123 82 749.979 82 747.668C82 742.531 87.6026 739.356 92.0098 741.996L123.237 760.701C125.261 761.913 126.5 764.1 126.5 766.459C126.5 771.691 120.78 774.912 116.307 772.198Z" fill="url(#paint34_radial_29_684)"/>
<defs>
<radialGradient id="paint0_radial_29_684" cx="0" cy="0" r="1" gradientUnits="userSpaceOnUse" gradientTransform="translate(163.765 649.235) rotate(102.83) scale(105.698 193.172)">
<stop stop-color="#095BFA"/>
<stop offset="1" stop-color="#BB09FA" stop-opacity="0"/>
</radialGradient>
<radialGradient id="paint1_radial_29_684" cx="0" cy="0" r="1" gradientUnits="userSpaceOnUse" gradientTransform="translate(163.765 649.235) rotate(102.83) scale(105.698 193.172)">
<stop stop-color="#095BFA"/>
<stop offset="1" stop-color="#BB09FA" stop-opacity="0"/>
</radialGradient>
<radialGradient id="paint2_radial_29_684" cx="0" cy="0" r="1" gradientUnits="userSpaceOnUse" gradientTransform="translate(51.8823 691.941) rotate(59.0832) scale(147.691 155.075)">
<stop stop-color="#9BEA04"/>
<stop offset="1" stop-color="#9BEA04" stop-opacity="0"/>
</radialGradient>
<radialGradient id="paint3_radial_29_684" cx="0" cy="0" r="1" gradientUnits="userSpaceOnUse" gradientTransform="translate(67.0148 727.961) rotate(63.1153) scale(21.4635 20.621)">
<stop stop-color="#FC64C4"/>
<stop offset="1" stop-color="#9BEA04" stop-opacity="0"/>
</radialGradient>
<radialGradient id="paint4_radial_29_684" cx="0" cy="0" r="1" gradientUnits="userSpaceOnUse" gradientTransform="translate(173.294 717.353) rotate(67.177) scale(91.901 140.886)">
<stop stop-color="#9BEA04"/>
<stop offset="1" stop-color="#9BEA04" stop-opacity="0"/>
</radialGradient>
<radialGradient id="paint5_radial_29_684" cx="0" cy="0" r="1" gradientUnits="userSpaceOnUse" gradientTransform="translate(163.765 572.294) rotate(102.83) scale(105.698 193.172)">
<stop stop-color="#095BFA"/>
<stop offset="1" stop-color="#BB09FA" stop-opacity="0"/>
</radialGradient>
<radialGradient id="paint6_radial_29_684" cx="0" cy="0" r="1" gradientUnits="userSpaceOnUse" gradientTransform="translate(163.765 572.294) rotate(102.83) scale(105.698 193.172)">
<stop stop-color="#095BFA"/>
<stop offset="1" stop-color="#BB09FA" stop-opacity="0"/>
</radialGradient>
<radialGradient id="paint7_radial_29_684" cx="0" cy="0" r="1" gradientUnits="userSpaceOnUse" gradientTransform="translate(51.8823 615) rotate(59.0832) scale(147.691 155.075)">
<stop stop-color="#9BEA04"/>
<stop offset="1" stop-color="#9BEA04" stop-opacity="0"/>
</radialGradient>
<radialGradient id="paint8_radial_29_684" cx="0" cy="0" r="1" gradientUnits="userSpaceOnUse" gradientTransform="translate(173.294 640.412) rotate(67.177) scale(91.901 140.886)">
<stop stop-color="#9BEA04"/>
<stop offset="1" stop-color="#9BEA04" stop-opacity="0"/>
</radialGradient>
<radialGradient id="paint9_radial_29_684" cx="0" cy="0" r="1" gradientUnits="userSpaceOnUse" gradientTransform="translate(163.765 495.353) rotate(102.83) scale(105.698 193.172)">
<stop stop-color="#095BFA"/>
<stop offset="1" stop-color="#BB09FA" stop-opacity="0"/>
</radialGradient>
<radialGradient id="paint10_radial_29_684" cx="0" cy="0" r="1" gradientUnits="userSpaceOnUse" gradientTransform="translate(163.765 495.353) rotate(102.83) scale(105.698 193.172)">
<stop stop-color="#095BFA"/>
<stop offset="1" stop-color="#BB09FA" stop-opacity="0"/>
</radialGradient>
<radialGradient id="paint11_radial_29_684" cx="0" cy="0" r="1" gradientUnits="userSpaceOnUse" gradientTransform="translate(51.8823 538.059) rotate(59.0832) scale(147.691 155.075)">
<stop stop-color="#9BEA04"/>
<stop offset="1" stop-color="#9BEA04" stop-opacity="0"/>
</radialGradient>
<radialGradient id="paint12_radial_29_684" cx="0" cy="0" r="1" gradientUnits="userSpaceOnUse" gradientTransform="translate(173.294 563.471) rotate(67.177) scale(91.901 140.886)">
<stop stop-color="#9BEA04"/>
<stop offset="1" stop-color="#9BEA04" stop-opacity="0"/>
</radialGradient>
<radialGradient id="paint13_radial_29_684" cx="0" cy="0" r="1" gradientUnits="userSpaceOnUse" gradientTransform="translate(163.765 418.412) rotate(102.83) scale(105.698 193.172)">
<stop stop-color="#095BFA"/>
<stop offset="1" stop-color="#BB09FA" stop-opacity="0"/>
</radialGradient>
<radialGradient id="paint14_radial_29_684" cx="0" cy="0" r="1" gradientUnits="userSpaceOnUse" gradientTransform="translate(163.765 418.412) rotate(102.83) scale(105.698 193.172)">
<stop stop-color="#095BFA"/>
<stop offset="1" stop-color="#BB09FA" stop-opacity="0"/>
</radialGradient>
<radialGradient id="paint15_radial_29_684" cx="0" cy="0" r="1" gradientUnits="userSpaceOnUse" gradientTransform="translate(51.8823 461.118) rotate(59.0832) scale(147.691 155.075)">
<stop stop-color="#9BEA04"/>
<stop offset="1" stop-color="#9BEA04" stop-opacity="0"/>
</radialGradient>
<radialGradient id="paint16_radial_29_684" cx="0" cy="0" r="1" gradientUnits="userSpaceOnUse" gradientTransform="translate(173.294 486.529) rotate(67.177) scale(91.901 140.886)">
<stop stop-color="#9BEA04"/>
<stop offset="1" stop-color="#9BEA04" stop-opacity="0"/>
</radialGradient>
<radialGradient id="paint17_radial_29_684" cx="0" cy="0" r="1" gradientUnits="userSpaceOnUse" gradientTransform="translate(163.765 341.471) rotate(102.83) scale(105.698 193.172)">
<stop stop-color="#095BFA"/>
<stop offset="1" stop-color="#BB09FA" stop-opacity="0"/>
</radialGradient>
<radialGradient id="paint18_radial_29_684" cx="0" cy="0" r="1" gradientUnits="userSpaceOnUse" gradientTransform="translate(163.765 341.471) rotate(102.83) scale(105.698 193.172)">
<stop stop-color="#095BFA"/>
<stop offset="1" stop-color="#BB09FA" stop-opacity="0"/>
</radialGradient>
<radialGradient id="paint19_radial_29_684" cx="0" cy="0" r="1" gradientUnits="userSpaceOnUse" gradientTransform="translate(51.8823 384.177) rotate(59.0832) scale(147.691 155.075)">
<stop stop-color="#9BEA04"/>
<stop offset="1" stop-color="#9BEA04" stop-opacity="0"/>
</radialGradient>
<radialGradient id="paint20_radial_29_684" cx="0" cy="0" r="1" gradientUnits="userSpaceOnUse" gradientTransform="translate(173.294 409.588) rotate(67.177) scale(91.901 140.886)">
<stop stop-color="#9BEA04"/>
<stop offset="1" stop-color="#9BEA04" stop-opacity="0"/>
</radialGradient>
<radialGradient id="paint21_radial_29_684" cx="0" cy="0" r="1" gradientUnits="userSpaceOnUse" gradientTransform="translate(121.462 454.482) rotate(63.1153) scale(21.4635 20.621)">
<stop stop-color="#9BEA04"/>
<stop offset="1" stop-color="#9BEA04" stop-opacity="0"/>
</radialGradient>
<radialGradient id="paint22_radial_29_684" cx="0" cy="0" r="1" gradientUnits="userSpaceOnUse" gradientTransform="translate(120.337 531.033) rotate(63.1153) scale(21.4635 20.621)">
<stop stop-color="#9BEA04"/>
<stop offset="1" stop-color="#9BEA04" stop-opacity="0"/>
</radialGradient>
<radialGradient id="paint23_radial_29_684" cx="0" cy="0" r="1" gradientUnits="userSpaceOnUse" gradientTransform="translate(95.9489 668.71) rotate(63.1153) scale(21.4635 20.621)">
<stop stop-color="#9BEA04"/>
<stop offset="1" stop-color="#9BEA04" stop-opacity="0"/>
</radialGradient>
<radialGradient id="paint24_radial_29_684" cx="0" cy="0" r="1" gradientUnits="userSpaceOnUse" gradientTransform="translate(104.955 597.788) rotate(63.1153) scale(21.4635 20.621)">
<stop stop-color="#9BEA04"/>
<stop offset="1" stop-color="#9BEA04" stop-opacity="0"/>
</radialGradient>
<radialGradient id="paint25_radial_29_684" cx="0" cy="0" r="1" gradientUnits="userSpaceOnUse" gradientTransform="translate(118.464 683.345) rotate(63.1153) scale(21.4635 20.621)">
<stop stop-color="#9BEA04"/>
<stop offset="1" stop-color="#9BEA04" stop-opacity="0"/>
</radialGradient>
<radialGradient id="paint26_radial_29_684" cx="0" cy="0" r="1" gradientUnits="userSpaceOnUse" gradientTransform="translate(99.3262 520.111) rotate(63.1153) scale(21.4635 20.621)">
<stop stop-color="#9BEA04"/>
<stop offset="1" stop-color="#9BEA04" stop-opacity="0"/>
</radialGradient>
<radialGradient id="paint27_radial_29_684" cx="0" cy="0" r="1" gradientUnits="userSpaceOnUse" gradientTransform="translate(72.3083 655.201) rotate(63.1153) scale(21.4635 20.621)">
<stop stop-color="#9BEA04"/>
<stop offset="1" stop-color="#9BEA04" stop-opacity="0"/>
</radialGradient>
<radialGradient id="paint28_radial_29_684" cx="0" cy="0" r="1" gradientUnits="userSpaceOnUse" gradientTransform="translate(49.7933 641.692) rotate(63.1153) scale(21.4635 20.621)">
<stop stop-color="#9BEA04"/>
<stop offset="1" stop-color="#9BEA04" stop-opacity="0"/>
</radialGradient>
<radialGradient id="paint29_radial_29_684" cx="0" cy="0" r="1" gradientUnits="userSpaceOnUse" gradientTransform="translate(25.0268 627.057) rotate(63.1153) scale(21.4635 20.621)">
<stop stop-color="#9BEA04"/>
<stop offset="1" stop-color="#9BEA04" stop-opacity="0"/>
</radialGradient>
<radialGradient id="paint30_radial_29_684" cx="0" cy="0" r="1" gradientUnits="userSpaceOnUse" gradientTransform="translate(79.2468 422.244) rotate(59.0832) scale(52.5387 55.1656)">
<stop stop-color="#9BEA04"/>
<stop offset="1" stop-color="#9BEA04" stop-opacity="0"/>
</radialGradient>
<linearGradient id="paint31_linear_29_684" x1="130.587" y1="553.862" x2="-52.9101" y2="457.048" gradientUnits="userSpaceOnUse">
<stop stop-color="#EA72F4"/>
<stop offset="1" stop-color="#FCD6FF" stop-opacity="0"/>
</linearGradient>
<linearGradient id="paint32_linear_29_684" x1="130.587" y1="629.287" x2="-52.9101" y2="532.473" gradientUnits="userSpaceOnUse">
<stop stop-color="#583AFA"/>
<stop offset="1" stop-color="#FCD6FF" stop-opacity="0"/>
</linearGradient>
<radialGradient id="paint33_diamond_29_684" cx="0" cy="0" r="1" gradientUnits="userSpaceOnUse" gradientTransform="translate(377.045 127.983) rotate(97.1896) scale(463.874 225.559)">
<stop offset="0.348958" stop-color="#F964FC"/>
<stop offset="1" stop-color="#FF9F6D" stop-opacity="0.13"/>
</radialGradient>
<radialGradient id="paint34_radial_29_684" cx="0" cy="0" r="1" gradientUnits="userSpaceOnUse" gradientTransform="translate(112 745) rotate(99.6599) scale(47.676 50.0598)">
<stop stop-color="#F964FC"/>
<stop offset="1" stop-color="#9BEA04" stop-opacity="0"/>
</radialGradient>
</defs>
</svg>
